<svg width="1440" height="1253" viewBox="0 1000 1440 1253" fill="none" xmlns="http://www.w3.org/2000/svg"><path d="M-707.728 1599.11C-1029.66 1195.77-1130.1 677.266-1001.21 109.385c20.966-92.448 54.808-137.973 162.202-89.942 168.647 75.335 340.192 144.218 515.261 200.4 124.424 39.935 155.359 100.066 134.794 229.081-55.938 352.039 75.731 630.386 375.304 824.816 297.88 193.34 667.199 177 939.479-54.02 119.14-100.86 190.96-111.66 285.1 28.3 97.27 144.79 214.28 276.82 329.12 408.17 71.54 82.07 66.77 134.31-18.35 205.91-704.76 599.52-1790.015 507.15-2429.428-262.99z" fill="#333F7F"/></svg>