<svg width="1440" height="655" viewBox="0 0 1440 655" fill="none" xmlns="http://www.w3.org/2000/svg"><path d="M1122.76 654.965c441.88-3.784 840.72-216.739 1148.57-608.596 50.13-63.779 62.11-110.802-27.79-156.203-141.12-71.345-279.51-148.096-411.37-234.034-93.72-61.076-150.38-49.185-225.03 34.051C1403.36-82.81 1147.27-20.112 856.317-114.158 566.994-207.664 378.471-461.696 385.01-767.075c2.724-133.502-28.878-187.011-172.723-174.039-148.748 13.512-299.675 7.027-448.968 1.622-93.171-3.243-125.318 28.105-126.953 123.232C-381.615-24.977 265.684 645.776 1122.76 654.965z" fill="#E5FCF4"/></svg>