<svg width="444" height="975" viewBox="0 0 444 975" fill="none" xmlns="http://www.w3.org/2000/svg"><path d="M-280.196 975c269.515-2.308 512.776-132.243 700.54-371.336 30.573-38.914 37.885-67.605-16.949-95.307-86.072-43.531-170.482-90.361-250.905-142.796-57.16-37.265-91.721-30.01-137.25 20.776-124.289 138.509-280.482 176.764-457.943 119.382-176.464-57.053-291.448-212.051-287.46-398.378 1.661-81.456-17.613-114.105-105.347-106.19-90.725 8.244-182.78 4.287-273.84.99-56.82-1.98-76.43 17.148-77.43 75.19C-1197.74 560.133-802.942 969.394-280.196 975z" fill="rgb(221, 88, 55)"/></svg>